<svg xmlns="http://www.w3.org/2000/svg">

  <symbol id="crown" viewBox="0 0 512 512">
    <path d="M77.7 370v34.4c0 8.3 6.8 15.1 15.1 15.1h326.5c8.3 0 15.1-6.8 15.1-15.1v-34.4h-356.7zm434.3-191.7c0-26.9-21.9-48.7-48.7-48.7s-48.7 21.9-48.7 48.7c0 12.9 5.1 24.7 13.3 33.4-14.6 16.4-35.9 26.7-59.6 26.7-38.3 0-70.3-27.1-78.1-63.1 9-8.8 14.5-21.1 14.5-34.7 0-26.9-21.9-48.7-48.7-48.7s-48.7 21.9-48.7 48.7c0 13.5 5.6 25.8 14.5 34.7-7.8 36-39.8 63.1-78.1 63.1-23.6 0-44.9-10.3-59.6-26.7 8.2-8.7 13.3-20.5 13.3-33.4 0-26.9-21.9-48.7-48.7-48.7s-48.7 21.9-48.7 48.7c0 23.3 16.4 42.8 38.3 47.6 4.3 35.7 12.7 79.2 28.8 113.9h377.8c16.1-34.8 24.5-78.2 28.8-113.9 21.9-4.8 38.3-24.3 38.3-47.6"/>
  </symbol>

</svg>